<svg width="299" height="179" viewBox="0 0 299 179" fill="none" xmlns="http://www.w3.org/2000/svg">
<rect width="299" height="179" fill="white"/>
<path d="M176.224 62.6623H177.527C178.147 62.6623 178.607 62.5072 178.906 62.197C179.205 61.8868 179.354 61.4751 179.354 60.9619C179.354 60.4656 179.205 60.0793 178.906 59.8029C178.613 59.5265 178.207 59.3884 177.688 59.3884C177.22 59.3884 176.828 59.5181 176.512 59.7775C176.196 60.0313 176.038 60.3641 176.038 60.7758H173.593C173.593 60.1328 173.765 59.5576 174.109 59.05C174.459 58.5367 174.944 58.1363 175.564 57.8487C176.19 57.561 176.878 57.4172 177.629 57.4172C178.931 57.4172 179.952 57.7302 180.691 58.3563C181.43 58.9767 181.799 59.8339 181.799 60.9281C181.799 61.4921 181.627 62.0109 181.283 62.4847C180.939 62.9584 180.488 63.3222 179.93 63.576C180.623 63.8242 181.139 64.1964 181.478 64.6927C181.822 65.189 181.994 65.7756 181.994 66.4524C181.994 67.5465 181.593 68.4235 180.793 69.0834C179.997 69.7433 178.943 70.0732 177.629 70.0732C176.399 70.0732 175.392 69.7489 174.608 69.1003C173.83 68.4517 173.441 67.5944 173.441 66.5285H175.886C175.886 66.991 176.058 67.3688 176.402 67.6621C176.752 67.9554 177.18 68.102 177.688 68.102C178.269 68.102 178.723 67.9498 179.05 67.6452C179.383 67.335 179.549 66.9261 179.549 66.4185C179.549 65.189 178.872 64.5743 177.519 64.5743H176.224V62.6623Z" fill="black"/>
<path d="M172.9 71.596H182.84V72.442H172.9V71.596Z" fill="black"/>
<path d="M235.223 57.4402L235.382 58.0579C234.578 58.6053 233.88 59.3737 233.287 60.3631C232.695 61.3524 232.23 62.5376 231.894 63.9187C231.562 65.2998 231.409 66.6382 231.434 67.9339L231.449 68.4311C231.56 70.4399 232.11 71.8611 233.099 72.6948L232.835 73.2749C231.831 72.5266 231.158 71.3564 230.817 69.7644C230.611 68.7952 230.533 67.8033 230.583 66.7888C230.638 65.4781 230.879 64.1648 231.306 62.849C231.738 61.5332 232.286 60.4158 232.948 59.4968C233.616 58.5777 234.375 57.8922 235.223 57.4402ZM239.314 69.7418H238.41L240.128 59.8885L237.031 60.9883L237.19 60.0994L241.016 58.7359H241.19L239.314 69.7418ZM247.329 69.8925C246.742 69.8774 246.244 69.7217 245.838 69.4254C245.431 69.1291 245.135 68.6972 244.949 68.1297C244.763 67.5572 244.68 66.9194 244.7 66.2163L244.753 65.4027L245.077 63.2633C245.313 61.7366 245.767 60.5765 246.44 59.783C247.113 58.9845 247.995 58.5978 249.084 58.6229C249.973 58.643 250.639 58.9719 251.081 59.6098C251.528 60.2425 251.736 61.1289 251.706 62.269C251.696 62.6305 251.668 62.9796 251.623 63.3161L251.322 65.2596C251.056 66.8516 250.584 68.0318 249.906 68.8002C249.228 69.5635 248.369 69.9276 247.329 69.8925ZM250.832 61.5759C250.727 60.1496 250.129 59.4189 249.039 59.3838C248.226 59.3586 247.56 59.6725 247.043 60.3254C246.526 60.9733 246.174 61.9149 245.988 63.1503L245.657 65.2747C245.582 65.8823 245.559 66.4222 245.589 66.8943C245.629 67.6125 245.803 68.1624 246.109 68.5441C246.42 68.9257 246.845 69.1241 247.382 69.1392C248.135 69.1743 248.768 68.8906 249.28 68.2879C249.793 67.6853 250.157 66.7888 250.373 65.5986L250.734 63.2859C250.83 62.6732 250.862 62.1032 250.832 61.5759ZM256.459 65.3952C256.163 67.2835 255.623 68.9182 254.84 70.2993C254.056 71.6803 253.095 72.6772 251.955 73.2899L251.796 72.7023C252.746 72.0545 253.539 71.1103 254.177 69.8699C254.815 68.6345 255.274 67.1554 255.555 65.4329L255.586 65.2822C255.706 64.4335 255.761 63.6073 255.751 62.8038C255.726 61.6437 255.57 60.6644 255.284 59.8659C254.998 59.0623 254.599 58.4497 254.086 58.0278L254.35 57.4553C255.134 58.0278 255.719 58.8916 256.105 60.0467C256.497 61.2018 256.663 62.5025 256.603 63.9488C256.582 64.4209 256.542 64.8629 256.482 65.2747L256.459 65.3952Z" fill="black"/>
<path d="M239.11 18.6146L239.268 19.2323C238.464 19.7797 237.766 20.5481 237.174 21.5374C236.581 22.5268 236.116 23.712 235.78 25.0931C235.449 26.4742 235.295 27.8125 235.32 29.1082L235.336 29.6054C235.446 31.6143 235.996 33.0355 236.985 33.8692L236.722 34.4492C235.717 33.7009 235.044 32.5308 234.703 30.9388C234.497 29.9695 234.419 28.9777 234.469 27.9632C234.524 26.6524 234.766 25.3392 235.192 24.0234C235.624 22.7076 236.172 21.5902 236.835 20.6711C237.503 19.7521 238.261 19.0666 239.11 18.6146ZM243.2 30.9162H242.296L244.014 21.0629L240.918 22.1627L241.076 21.2738L244.903 19.9103H245.076L243.2 30.9162ZM250.974 24.9424L251.841 24.9575C252.599 24.9575 253.242 24.7591 253.769 24.3624C254.301 23.9656 254.605 23.4308 254.681 22.7578C254.751 22.0949 254.615 21.5676 254.274 21.1759C253.937 20.7841 253.445 20.5782 252.797 20.5581C252.104 20.5481 251.517 20.749 251.035 21.1608C250.557 21.5726 250.256 22.125 250.131 22.8181L249.257 22.8256C249.367 21.9267 249.756 21.1934 250.424 20.6259C251.097 20.0584 251.903 19.7797 252.843 19.7898C253.741 19.8098 254.442 20.0986 254.944 20.6561C255.446 21.2085 255.657 21.9191 255.577 22.7879C255.532 23.3303 255.318 23.8225 254.937 24.2644C254.56 24.7064 254.038 25.0604 253.37 25.3266C253.922 25.5225 254.337 25.8464 254.613 26.2984C254.894 26.7504 255.01 27.2777 254.959 27.8803C254.879 28.8396 254.495 29.6155 253.807 30.2081C253.119 30.8007 252.278 31.0869 251.283 31.0669C250.349 31.0468 249.598 30.748 249.031 30.1704C248.468 29.5879 248.222 28.8446 248.293 27.9406H249.181C249.121 28.6136 249.287 29.171 249.679 29.613C250.075 30.0549 250.625 30.2859 251.328 30.306C252.082 30.3261 252.709 30.1177 253.212 29.6808C253.714 29.2388 254 28.6487 254.07 27.9105C254.131 27.2676 253.98 26.7554 253.618 26.3737C253.257 25.992 252.704 25.7761 251.961 25.7259L251.803 25.7183L250.854 25.7108L250.974 24.9424ZM260.346 26.5696C260.049 28.4579 259.509 30.0926 258.726 31.4737C257.942 32.8547 256.981 33.8516 255.841 34.4643L255.683 33.8767C256.632 33.2289 257.425 32.2847 258.063 31.0443C258.701 29.8088 259.16 28.3298 259.442 26.6072L259.472 26.4566C259.592 25.6078 259.647 24.7817 259.637 23.9782C259.612 22.8181 259.457 21.8388 259.17 21.0403C258.884 20.2367 258.485 19.624 257.973 19.2022L258.236 18.6297C259.02 19.2022 259.605 20.066 259.991 21.2211C260.383 22.3761 260.549 23.6769 260.489 25.1232C260.469 25.5953 260.428 26.0372 260.368 26.449L260.346 26.5696Z" fill="black"/>
<path d="M21.2578 19.6243L24.9766 28.9055L28.6953 19.6243H30.6406V30.9993H29.1406V26.5696L29.2812 21.7883L25.5469 30.9993H24.3984L20.6719 21.8118L20.8203 26.5696V30.9993H19.3203V19.6243H21.2578ZM34.7828 30.9993H33.3375V22.5461H34.7828V30.9993ZM33.2203 20.304C33.2203 20.0696 33.2906 19.8717 33.4312 19.7102C33.5771 19.5487 33.7906 19.468 34.0719 19.468C34.3531 19.468 34.5667 19.5487 34.7125 19.7102C34.8583 19.8717 34.9312 20.0696 34.9312 20.304C34.9312 20.5383 34.8583 20.7336 34.7125 20.8899C34.5667 21.0461 34.3531 21.1243 34.0719 21.1243C33.7906 21.1243 33.5771 21.0461 33.4312 20.8899C33.2906 20.7336 33.2203 20.5383 33.2203 20.304ZM38.8234 30.9993H37.3781V18.9993H38.8234V30.9993ZM43.6531 27.0852L42.7469 28.0305V30.9993H41.3016V18.9993H42.7469V26.2571L43.5203 25.3274L46.1531 22.5461H47.9109L44.6219 26.0774L48.2938 30.9993H46.5984L43.6531 27.0852Z" fill="black" fill-opacity="0.8"/>
<path d="M179.202 30.9993H171.405V29.4524L175.085 25.5305C175.59 24.9784 175.963 24.4967 176.202 24.0852C176.447 23.6737 176.569 23.2831 176.569 22.9133C176.569 22.4081 176.442 22.0123 176.187 21.7258C175.931 21.4342 175.567 21.2883 175.093 21.2883C174.582 21.2883 174.179 21.4654 173.882 21.8196C173.59 22.1685 173.444 22.6295 173.444 23.2024H171.179C171.179 22.5097 171.343 21.8769 171.671 21.304C172.004 20.731 172.473 20.2831 173.077 19.9602C173.681 19.6321 174.366 19.468 175.132 19.468C176.304 19.468 177.213 19.7493 177.858 20.3118C178.509 20.8743 178.835 21.6685 178.835 22.6946C178.835 23.2571 178.689 23.83 178.397 24.4133C178.106 24.9967 177.606 25.6764 176.897 26.4524L174.312 29.179H179.202V30.9993ZM186.868 19.5071V21.3665H186.649C185.628 21.3821 184.805 21.6477 184.18 22.1633C183.56 22.679 183.188 23.3951 183.063 24.3118C183.667 23.6972 184.43 23.3899 185.352 23.3899C186.342 23.3899 187.128 23.7441 187.712 24.4524C188.295 25.1607 188.587 26.093 188.587 27.2493C188.587 27.9889 188.425 28.6581 188.102 29.2571C187.784 29.856 187.331 30.3222 186.743 30.6555C186.159 30.9889 185.498 31.1555 184.758 31.1555C183.56 31.1555 182.592 30.7389 181.852 29.9055C181.118 29.0722 180.751 27.9602 180.751 26.5696V25.7571C180.751 24.5227 180.982 23.4342 181.446 22.4915C181.915 21.5435 182.584 20.8118 183.454 20.2961C184.329 19.7753 185.342 19.5123 186.493 19.5071H186.868ZM184.665 25.2024C184.3 25.2024 183.969 25.2987 183.672 25.4915C183.376 25.679 183.157 25.929 183.016 26.2415V26.929C183.016 27.6842 183.165 28.2753 183.462 28.7024C183.758 29.1243 184.175 29.3352 184.712 29.3352C185.196 29.3352 185.587 29.1451 185.883 28.7649C186.185 28.3795 186.337 27.8821 186.337 27.2727C186.337 26.6529 186.185 26.1529 185.883 25.7727C185.581 25.3925 185.175 25.2024 184.665 25.2024ZM199.457 28.7571C199.457 28.3665 199.308 28.0644 199.012 27.8508C198.72 27.6321 198.207 27.4446 197.472 27.2883C196.743 27.1321 196.163 26.9446 195.73 26.7258C195.303 26.5071 194.985 26.2467 194.777 25.9446C194.574 25.6425 194.472 25.2831 194.472 24.8665C194.472 24.1737 194.764 23.5878 195.347 23.1086C195.936 22.6295 196.686 22.3899 197.597 22.3899C198.556 22.3899 199.332 22.6373 199.926 23.1321C200.525 23.6269 200.824 24.2597 200.824 25.0305H199.371C199.371 24.6347 199.202 24.2935 198.863 24.0071C198.53 23.7206 198.108 23.5774 197.597 23.5774C197.071 23.5774 196.66 23.692 196.363 23.9211C196.066 24.1503 195.918 24.4498 195.918 24.8196C195.918 25.1685 196.056 25.4316 196.332 25.6086C196.608 25.7857 197.105 25.955 197.824 26.1165C198.548 26.2779 199.134 26.4706 199.582 26.6946C200.03 26.9185 200.36 27.1894 200.574 27.5071C200.793 27.8196 200.902 28.2024 200.902 28.6555C200.902 29.4107 200.6 30.0175 199.996 30.4758C199.392 30.929 198.608 31.1555 197.644 31.1555C196.967 31.1555 196.368 31.0357 195.847 30.7961C195.327 30.5566 194.918 30.2232 194.621 29.7961C194.329 29.3639 194.183 28.8977 194.183 28.3977H195.629C195.655 28.8821 195.847 29.2675 196.207 29.554C196.571 29.8352 197.051 29.9758 197.644 29.9758C198.191 29.9758 198.629 29.8665 198.957 29.6477C199.29 29.4237 199.457 29.1269 199.457 28.7571ZM204.294 29.8196H209.24V30.9993H202.529V29.9368L207.193 23.7415H202.599V22.5461H209.005V23.5696L204.294 29.8196ZM212.983 20.4993V22.5461H214.562V23.6633H212.983V28.9055C212.983 29.2441 213.054 29.4993 213.194 29.6711C213.335 29.8378 213.575 29.9211 213.913 29.9211C214.08 29.9211 214.309 29.8899 214.601 29.8274V30.9993C214.22 31.1034 213.851 31.1555 213.491 31.1555C212.845 31.1555 212.358 30.9602 212.03 30.5696C211.702 30.179 211.538 29.6243 211.538 28.9055V23.6633H209.999V22.5461H211.538V20.4993H212.983Z" fill="black" fill-opacity="0.8"/>
<path d="M198.131 65.8485C198.131 65.4579 197.983 65.1558 197.686 64.9423C197.394 64.7235 196.881 64.536 196.147 64.3798C195.418 64.2235 194.837 64.036 194.405 63.8173C193.978 63.5985 193.66 63.3381 193.452 63.036C193.249 62.7339 193.147 62.3746 193.147 61.9579C193.147 61.2652 193.439 60.6792 194.022 60.2001C194.611 59.7209 195.361 59.4813 196.272 59.4813C197.23 59.4813 198.006 59.7287 198.6 60.2235C199.199 60.7183 199.499 61.3511 199.499 62.1219H198.046C198.046 61.7261 197.876 61.385 197.538 61.0985C197.204 60.8121 196.782 60.6688 196.272 60.6688C195.746 60.6688 195.335 60.7834 195.038 61.0126C194.741 61.2417 194.592 61.5412 194.592 61.911C194.592 62.26 194.73 62.523 195.006 62.7001C195.282 62.8772 195.78 63.0464 196.499 63.2079C197.223 63.3693 197.809 63.5621 198.256 63.786C198.704 64.01 199.035 64.2808 199.249 64.5985C199.467 64.911 199.577 65.2938 199.577 65.7469C199.577 66.5022 199.275 67.1089 198.671 67.5673C198.066 68.0204 197.282 68.2469 196.319 68.2469C195.642 68.2469 195.043 68.1272 194.522 67.8876C194.001 67.648 193.592 67.3147 193.296 66.8876C193.004 66.4553 192.858 65.9891 192.858 65.4891H194.303C194.329 65.9735 194.522 66.3589 194.881 66.6454C195.246 66.9266 195.725 67.0673 196.319 67.0673C196.866 67.0673 197.303 66.9579 197.631 66.7391C197.965 66.5152 198.131 66.2183 198.131 65.8485ZM202.969 66.911H207.914V68.0907H201.203V67.0282L205.867 60.8329H201.274V59.6376H207.68V60.661L202.969 66.911ZM211.658 57.5907V59.6376H213.236V60.7548H211.658V65.9969C211.658 66.3355 211.728 66.5907 211.869 66.7626C212.01 66.9292 212.249 67.0126 212.588 67.0126C212.754 67.0126 212.984 66.9813 213.275 66.9188V68.0907C212.895 68.1949 212.525 68.2469 212.166 68.2469C211.52 68.2469 211.033 68.0516 210.705 67.661C210.377 67.2704 210.213 66.7157 210.213 65.9969V60.7548H208.674V59.6376H210.213V57.5907H211.658Z" fill="black" fill-opacity="0.8"/>
<path d="M23.4922 64.9439H20.8203V69.5455H19.3125V58.1705H23.0781C24.3594 58.1705 25.3438 58.4621 26.0312 59.0455C26.724 59.6288 27.0703 60.4778 27.0703 61.5923C27.0703 62.3007 26.8776 62.9179 26.4922 63.4439C26.112 63.97 25.5807 64.3632 24.8984 64.6236L27.5703 69.4517V69.5455H25.9609L23.4922 64.9439ZM20.8203 63.7173H23.125C23.8698 63.7173 24.4609 63.5246 24.8984 63.1392C25.3411 62.7538 25.5625 62.2382 25.5625 61.5923C25.5625 60.8892 25.3516 60.3502 24.9297 59.9752C24.513 59.6002 23.9089 59.4101 23.1172 59.4048H20.8203V63.7173ZM30.6734 69.5455H29.2281V61.0923H30.6734V69.5455ZM29.1109 58.8502C29.1109 58.6158 29.1812 58.4179 29.3219 58.2564C29.4677 58.095 29.6812 58.0142 29.9625 58.0142C30.2437 58.0142 30.4573 58.095 30.6031 58.2564C30.749 58.4179 30.8219 58.6158 30.8219 58.8502C30.8219 59.0845 30.749 59.2798 30.6031 59.4361C30.4573 59.5923 30.2437 59.6705 29.9625 59.6705C29.6812 59.6705 29.4677 59.5923 29.3219 59.4361C29.1812 59.2798 29.1109 59.0845 29.1109 58.8502ZM36.5344 68.522C37.05 68.522 37.5005 68.3658 37.8859 68.0533C38.2714 67.7408 38.4849 67.3502 38.5266 66.8814H39.8938C39.8677 67.3658 39.701 67.8267 39.3938 68.2642C39.0865 68.7017 38.675 69.0507 38.1594 69.3111C37.649 69.5715 37.1073 69.7017 36.5344 69.7017C35.3833 69.7017 34.4667 69.3189 33.7844 68.5533C33.1073 67.7825 32.7688 66.7304 32.7688 65.397V65.1548C32.7688 64.3319 32.9198 63.6002 33.2219 62.9595C33.524 62.3189 33.9563 61.8215 34.5188 61.4673C35.0865 61.1132 35.7557 60.9361 36.5266 60.9361C37.4745 60.9361 38.2609 61.22 38.8859 61.7877C39.5161 62.3554 39.8521 63.0923 39.8938 63.9986H38.5266C38.4849 63.4517 38.2766 63.0038 37.9016 62.6548C37.5318 62.3007 37.0734 62.1236 36.5266 62.1236C35.7922 62.1236 35.2219 62.3892 34.8156 62.9205C34.4146 63.4465 34.2141 64.2095 34.2141 65.2095V65.483C34.2141 66.4569 34.4146 67.2069 34.8156 67.733C35.2167 68.259 35.7896 68.522 36.5344 68.522ZM45.1766 69.7017C44.0307 69.7017 43.0984 69.3267 42.3797 68.5767C41.6609 67.8215 41.3016 66.8137 41.3016 65.5533V65.2877C41.3016 64.4491 41.4604 63.7017 41.7781 63.0455C42.101 62.384 42.549 61.8684 43.1219 61.4986C43.7 61.1236 44.325 60.9361 44.9969 60.9361C46.0958 60.9361 46.95 61.2981 47.5594 62.022C48.1688 62.746 48.4734 63.7825 48.4734 65.1314V65.733H42.7469C42.7677 66.5663 43.0099 67.2408 43.4734 67.7564C43.9422 68.2668 44.5359 68.522 45.2547 68.522C45.7651 68.522 46.1974 68.4179 46.5516 68.2095C46.9057 68.0012 47.2156 67.7252 47.4813 67.3814L48.3641 68.0689C47.6557 69.1575 46.5932 69.7017 45.1766 69.7017ZM44.9969 62.1236C44.4135 62.1236 43.924 62.3371 43.5281 62.7642C43.1323 63.1861 42.8875 63.7798 42.7938 64.5455H47.0281V64.4361C46.9865 63.7017 46.7885 63.134 46.4344 62.733C46.0802 62.3267 45.601 62.1236 44.9969 62.1236Z" fill="black" fill-opacity="0.8"/>
<g clip-path="url(#clip0)">
<path d="M283.56 14.6002L288.614 20.917L277.641 34.6335L273.135 35.2552C272.532 35.3386 272.022 34.7011 272.089 33.9471L272.591 28.3113L283.56 14.6002V14.6002ZM291.739 13.6598L289.367 10.6939C288.626 9.76871 287.426 9.76871 286.686 10.6939L284.454 13.4841L289.507 19.8009L291.739 17.0106C292.479 16.0849 292.479 14.585 291.739 13.6598V13.6598Z" fill="black" fill-opacity="0.6"/>
</g>
<g clip-path="url(#clip1)">
<path d="M283.56 56.8505L288.613 63.483L277.64 77.8853L273.135 78.5381C272.531 78.6257 272.022 77.9563 272.089 77.1647L272.59 71.2471L283.56 56.8505V56.8505ZM291.739 55.863L289.366 52.7488C288.626 51.7773 287.426 51.7773 286.685 52.7488L284.453 55.6785L289.507 62.3111L291.739 59.3813C292.479 58.4094 292.479 56.8344 291.739 55.863V55.863Z" fill="black" fill-opacity="0.6"/>
</g>
<rect x="120.449" y="113" width="56" height="56" rx="28" fill="#FB8E01"/>
<rect x="147.095" y="128.355" width="2.70968" height="24.8387" fill="white"/>
<rect x="160.643" y="139.194" width="2.70968" height="24.8387" transform="rotate(90 160.643 139.194)" fill="white"/>
<path d="M49 146.384L49 134.773L94.432 134.773L94.432 122.304L113.992 140.695L94.432 161.502L94.432 146.384L49 146.384L49 146.384Z" fill="#FD1616" stroke="black" stroke-width="0.429379"/>
<defs>
<clipPath id="clip0">
<rect width="20.2103" height="25.2629" fill="white" transform="translate(272.084 10)"/>
</clipPath>
<clipPath id="clip1">
<rect width="20.2103" height="26.5261" fill="white" transform="translate(272.084 52.0194)"/>
</clipPath>
</defs>
</svg>
