<svg width="164" height="158" viewBox="0 0 164 158" fill="none" xmlns="http://www.w3.org/2000/svg">
<rect width="164" height="158" rx="10" fill="url(#paint0_radial)"/>
<path d="M34.6374 59.6466C34.0565 57.7209 35.4981 55.7803 37.5096 55.7803H121.926C123.934 55.7803 125.375 57.7141 124.801 59.638L112.189 101.908H47.3848L34.6374 59.6466Z" fill="white"/>
<path d="M33.77 129.454V138.472H28.4966V112.878H38.481C40.4028 112.878 42.0903 113.229 43.5435 113.933C45.0083 114.636 46.1333 115.638 46.9185 116.938C47.7036 118.228 48.0962 119.698 48.0962 121.351C48.0962 123.858 47.2349 125.839 45.5122 127.292C43.8013 128.733 41.4282 129.454 38.3931 129.454H33.77ZM33.77 125.183H38.481C39.8755 125.183 40.936 124.854 41.6626 124.198C42.4009 123.542 42.77 122.604 42.77 121.386C42.77 120.132 42.4009 119.118 41.6626 118.345C40.9243 117.571 39.9048 117.173 38.604 117.149H33.77V125.183ZM62.3672 138.472C62.1328 138.015 61.9629 137.446 61.8574 136.767C60.627 138.138 59.0274 138.823 57.0586 138.823C55.1953 138.823 53.6485 138.284 52.418 137.206C51.1992 136.128 50.5899 134.769 50.5899 133.128C50.5899 131.112 51.334 129.565 52.8223 128.487C54.3223 127.409 56.4844 126.864 59.3086 126.853H61.6465V125.763C61.6465 124.884 61.418 124.181 60.961 123.653C60.5156 123.126 59.8067 122.862 58.834 122.862C57.9785 122.862 57.3047 123.067 56.8125 123.478C56.3321 123.888 56.0918 124.45 56.0918 125.165H51.0117C51.0117 124.063 51.3516 123.044 52.0313 122.106C52.711 121.169 53.6719 120.437 54.9141 119.909C56.1563 119.37 57.5508 119.101 59.0977 119.101C61.4414 119.101 63.2988 119.692 64.6699 120.876C66.0528 122.048 66.7442 123.7 66.7442 125.833V134.077C66.7559 135.882 67.0078 137.247 67.5 138.173V138.472H62.3672ZM58.166 134.938C58.916 134.938 59.6074 134.774 60.2403 134.446C60.8731 134.106 61.3418 133.655 61.6465 133.093V129.823H59.7481C57.2051 129.823 55.8516 130.702 55.6875 132.46L55.6699 132.759C55.6699 133.392 55.8926 133.913 56.3379 134.323C56.7832 134.733 57.3926 134.938 58.166 134.938ZM75.4781 119.452L75.6363 121.649C76.9956 119.95 78.8179 119.101 81.1031 119.101C83.1187 119.101 84.6187 119.692 85.6031 120.876C86.5874 122.06 87.0914 123.829 87.1148 126.185V138.472H82.0347V126.308C82.0347 125.229 81.8003 124.45 81.3316 123.97C80.8628 123.478 80.0835 123.231 78.9937 123.231C77.564 123.231 76.4917 123.841 75.7769 125.06V138.472H70.6968V119.452H75.4781ZM97.2198 114.776V119.452H100.472V123.179H97.2198V132.671C97.2198 133.374 97.3546 133.878 97.6241 134.183C97.8936 134.487 98.4092 134.64 99.171 134.64C99.7335 134.64 100.232 134.599 100.665 134.517V138.366C99.669 138.671 98.6436 138.823 97.5889 138.823C94.0264 138.823 92.21 137.024 92.1397 133.427V123.179H89.3624V119.452H92.1397V114.776H97.2198ZM114.145 124.216C113.454 124.122 112.844 124.075 112.317 124.075C110.395 124.075 109.135 124.726 108.538 126.026V138.472H103.458V119.452H108.256L108.397 121.72C109.417 119.974 110.829 119.101 112.633 119.101C113.196 119.101 113.723 119.177 114.215 119.329L114.145 124.216ZM124.18 131.282L127.695 119.452H133.145L125.498 141.425L125.076 142.427C123.94 144.911 122.065 146.153 119.451 146.153C118.713 146.153 117.963 146.042 117.201 145.819V141.97L117.975 141.987C118.936 141.987 119.65 141.841 120.119 141.548C120.6 141.255 120.975 140.769 121.244 140.089L121.842 138.524L115.18 119.452H120.647L124.18 131.282Z" fill="white"/>
<rect x="48.7178" y="28.7588" width="56.724" height="16.8301" rx="8.41507" transform="rotate(56.8536 48.7178 28.7588)" fill="white"/>
<rect x="88.1484" y="19.5283" width="56.724" height="16.8301" rx="8.41507" transform="rotate(90 88.1484 19.5283)" fill="white"/>
<rect x="79.7114" y="64.4424" width="58.8206" height="26.3176" rx="13" transform="rotate(-49.7806 79.7114 64.4424)" fill="white"/>
<rect x="101.328" y="62.0781" width="35.5303" height="6.44516" rx="3.22258" transform="rotate(90 101.328 62.0781)" fill="#FFA928"/>
<rect x="64.625" y="62.0781" width="35.5303" height="6.44516" rx="3.22258" transform="rotate(90 64.625 62.0781)" fill="#FFA928"/>
<path d="M79.754 62.0781C81.5338 62.0781 82.9766 63.5209 82.9766 65.3007L82.9766 94.3859C82.9766 96.1657 81.5338 97.6085 79.754 97.6085V97.6085C77.9742 97.6085 76.5314 96.1657 76.5314 94.3859L76.5314 65.3007C76.5314 63.5209 77.9742 62.0781 79.754 62.0781V62.0781Z" fill="#FFA928"/>
<defs>
<radialGradient id="paint0_radial" cx="0" cy="0" r="1" gradientUnits="userSpaceOnUse" gradientTransform="translate(5.97926 138.087) rotate(-38.4223) scale(201.698 1042.23)">
<stop stop-color="#FF9A01"/>
<stop offset="1" stop-color="#FFB23E"/>
</radialGradient>
</defs>
</svg>
