<svg width="325" height="109" viewBox="0 0 325 109" fill="none" xmlns="http://www.w3.org/2000/svg">
<g filter="url(#filter0_d)">
<path d="M19.2297 51.378V78.8394H3.17044V0.898411H33.576C39.4287 0.898411 44.5676 1.96903 48.9929 4.11026C53.4538 6.2515 56.8797 9.30276 59.2708 13.264C61.6618 17.1896 62.8574 21.6684 62.8574 26.7003C62.8574 34.3374 60.2343 40.3685 54.9883 44.7937C49.778 49.1833 42.5513 51.378 33.3083 51.378H19.2297ZM19.2297 38.37H33.576C37.8228 38.37 41.0524 37.3708 43.2651 35.3723C45.5134 33.3738 46.6375 30.5188 46.6375 26.8074C46.6375 22.9888 45.5134 19.9019 43.2651 17.5465C41.0168 15.1912 37.912 13.9778 33.9507 13.9064H19.2297V38.37ZM106.317 78.8394C105.603 77.4476 105.086 75.7167 104.765 73.6469C101.017 77.8223 96.1462 79.91 90.1507 79.91C84.4765 79.91 79.7657 78.2684 76.0186 74.9851C72.3071 71.7019 70.4514 67.5622 70.4514 62.566C70.4514 56.4278 72.7175 51.717 77.2498 48.4338C81.8178 45.1506 88.402 43.4911 97.0027 43.4555H104.122V40.1365C104.122 37.46 103.426 35.3188 102.035 33.7128C100.678 32.1069 98.5194 31.3039 95.5573 31.3039C92.9522 31.3039 90.9002 31.9285 89.4013 33.1775C87.9381 34.4266 87.2065 36.1396 87.2065 38.3165H71.7361C71.7361 34.9619 72.771 31.8571 74.8409 29.0021C76.9108 26.1471 79.8371 23.9167 83.62 22.3108C87.4028 20.6691 91.6496 19.8483 96.3603 19.8483C103.498 19.8483 109.154 21.6505 113.33 25.255C117.541 28.8237 119.646 33.8556 119.646 40.3507V65.4566C119.682 70.9525 120.449 75.11 121.948 77.9293V78.8394H106.317ZM93.5232 68.0797C95.8072 68.0797 97.9127 67.58 99.8398 66.5808C101.767 65.5459 103.194 64.1719 104.122 62.4589V52.5022H98.3409C90.5968 52.5022 86.4749 55.1787 85.9753 60.5318L85.9218 61.4418C85.9218 63.3689 86.5998 64.957 87.956 66.2061C89.3121 67.4551 91.1678 68.0797 93.5232 68.0797ZM146.244 20.919L146.725 27.6103C150.865 22.4357 156.415 19.8483 163.374 19.8483C169.512 19.8483 174.08 21.6505 177.077 25.255C180.075 28.8594 181.61 34.2481 181.681 41.4213V78.8394H166.211V41.796C166.211 38.5128 165.497 36.1396 164.069 34.6764C162.642 33.1775 160.269 32.4281 156.95 32.4281C152.596 32.4281 149.331 34.2838 147.154 37.9953V78.8394H131.683V20.919H146.244ZM212.454 6.67975V20.919H222.357V32.2675H212.454V61.1742C212.454 63.3154 212.864 64.85 213.685 65.7778C214.506 66.7057 216.076 67.1696 218.396 67.1696C220.109 67.1696 221.626 67.0447 222.946 66.7949V78.5182C219.913 79.446 216.79 79.91 213.578 79.91C202.729 79.91 197.198 74.432 196.984 63.476V32.2675H188.526V20.919H196.984V6.67975H212.454ZM263.997 35.4258C261.891 35.1403 260.036 34.9976 258.43 34.9976C252.577 34.9976 248.741 36.9782 246.921 40.9395V78.8394H231.45V20.919H246.064L246.492 27.8244C249.597 22.507 253.897 19.8483 259.393 19.8483C261.106 19.8483 262.712 20.0803 264.211 20.5442L263.997 35.4258ZM294.556 56.9452L305.262 20.919H321.856L298.57 87.8325L297.286 90.8838C293.824 98.4495 288.114 102.232 280.156 102.232C277.908 102.232 275.624 101.893 273.304 101.215V89.492L275.659 89.5455C278.586 89.5455 280.763 89.0994 282.19 88.2073C283.653 87.3151 284.795 85.8341 285.616 83.7642L287.436 78.9999L267.148 20.919H283.796L294.556 56.9452Z" fill="#FB8E01"/>
</g>
<defs>
<filter id="filter0_d" x="0.17041" y="0.898438" width="324.686" height="107.334" filterUnits="userSpaceOnUse" color-interpolation-filters="sRGB">
<feFlood flood-opacity="0" result="BackgroundImageFix"/>
<feColorMatrix in="SourceAlpha" type="matrix" values="0 0 0 0 0 0 0 0 0 0 0 0 0 0 0 0 0 0 127 0"/>
<feOffset dy="3"/>
<feGaussianBlur stdDeviation="1.5"/>
<feColorMatrix type="matrix" values="0 0 0 0 0 0 0 0 0 0 0 0 0 0 0 0 0 0 1 0"/>
<feBlend mode="normal" in2="BackgroundImageFix" result="effect1_dropShadow"/>
<feBlend mode="normal" in="SourceGraphic" in2="effect1_dropShadow" result="shape"/>
</filter>
</defs>
</svg>
